<svg id="Capa_1" enable-background="new 0 0 512.004 512.004" height="512" viewBox="0 0 512.004 512.004" width="512" xmlns="http://www.w3.org/2000/svg" xmlns:xlink="http://www.w3.org/1999/xlink"><linearGradient id="SVGID_1_" gradientUnits="userSpaceOnUse" x1="362.003" x2="362.003" y1="512.002" y2=".002"><stop offset="0" stop-color="#addcff"/><stop offset=".5028" stop-color="#eaf6ff"/><stop offset="1" stop-color="#eaf6ff"/></linearGradient><linearGradient id="SVGID_2_" gradientUnits="userSpaceOnUse" x1="150.001" x2="150.001" y1="511.997" y2=".002"><stop offset="0" stop-color="#5558ff"/><stop offset="1" stop-color="#00c0ff"/></linearGradient><g id="Arrow_109_"><g><g><path d="m509.014 125.671-90-120c-5.684-7.559-18.34-7.559-24.023 0l-90 120c-3.809 5.068-3.984 11.997-.498 17.285 3.516 5.303 10.02 7.822 16.143 6.255l41.367-10.327v208.118c0 41.353-33.633 75-75 75h-60c-8.291 0-15 6.709-15 15v60c0 8.291 6.709 15 15 15h60c90.967 0 165-74.019 165-165v-208.118l41.367 10.327c6.152 1.567 12.627-.952 16.143-6.255 3.485-5.288 3.309-12.217-.499-17.285z" fill="url(#SVGID_1_)"/></g></g><g><g><path d="m285.002.002h-60c-90.967 0-165 74.019-165 165v207.781l-41.367-10.327c-6.094-1.597-12.598.967-16.143 6.255-3.486 5.288-3.311 12.217.498 17.285l90 120c6.02 8.006 18.011 7.996 24.023 0l90-120c3.809-5.068 3.984-11.997.498-17.285-3.545-5.288-9.961-7.852-16.143-6.255l-41.367 10.327v-207.781c0-41.353 33.633-75 75-75h60c8.291 0 15-6.709 15-15v-60c.001-8.291-6.708-15-14.999-15z" fill="url(#SVGID_2_)"/></g></g></g></svg>