<svg id="Capa_1" enable-background="new 0 0 512 512" height="512" viewBox="0 0 512 512" width="512" xmlns="http://www.w3.org/2000/svg" xmlns:xlink="http://www.w3.org/1999/xlink"><linearGradient id="lg1"><stop offset="0" stop-color="#5558ff"/><stop offset="1" stop-color="#00c0ff"/></linearGradient><linearGradient id="SVGID_1_" gradientUnits="userSpaceOnUse" x1="256" x2="256" xlink:href="#lg1" y1="512" y2="0"/><linearGradient id="SVGID_2_" gradientUnits="userSpaceOnUse" x1="256" x2="256" y1="392" y2="30"><stop offset="0" stop-color="#addcff"/><stop offset=".5028" stop-color="#eaf6ff"/><stop offset="1" stop-color="#eaf6ff"/></linearGradient><linearGradient id="SVGID_3_" gradientUnits="userSpaceOnUse" x1="256" x2="256" xlink:href="#lg1" y1="233.222" y2="91"/><g><path d="m497 0h-482c-8.291 0-15 6.709-15 15v392c0 8.291 6.709 15 15 15h190.301l-20 60h-19.301c-8.291 0-15 6.709-15 15s6.709 15 15 15h180c8.291 0 15-6.709 15-15s-6.709-15-15-15h-19.301l-20-60h190.301c8.291 0 15-6.709 15-15v-392c0-8.291-6.709-15-15-15z" fill="url(#SVGID_1_)"/><path d="m30 30h452v362h-452z" fill="url(#SVGID_2_)"/><g><g><path d="m106 151h47.763c6.213 17.422 22.707 30 42.237 30s36.024-12.578 42.237-30h167.763c8.291 0 15-6.709 15-15s-6.709-15-15-15h-167.763c-6.213-17.422-22.707-30-42.237-30s-36.024 12.578-42.237 30h-47.763c-8.291 0-15 6.709-15 15s6.709 15 15 15zm300 120h-47.763c-6.213-17.422-22.707-30-42.237-30s-36.024 12.578-42.237 30h-167.763c-8.291 0-15 6.709-15 15s6.709 15 15 15h167.763c6.213 17.422 22.707 30 42.237 30s36.024-12.578 42.237-30h47.763c8.291 0 15-6.709 15-15s-6.709-15-15-15z" fill="url(#SVGID_3_)"/></g></g></g></svg>