<svg xmlns="http://www.w3.org/2000/svg" xmlns:xlink="http://www.w3.org/1999/xlink" width="60" height="60" viewBox="0 0 60 60"><defs><linearGradient id="a" x1="0.5" y1="1" x2="0.5" gradientUnits="objectBoundingBox"><stop offset="0" stop-color="#fd5900"/><stop offset="1" stop-color="#ffde00"/></linearGradient><linearGradient id="b" x1="0.5" y1="1" x2="0.5" gradientUnits="objectBoundingBox"><stop offset="0" stop-color="#ffe59a"/><stop offset="1" stop-color="#ffffd5"/></linearGradient></defs><g transform="translate(0 0)"><path d="M54.5,12.914l-8.509-1.623L47.086,5.5a29.305,29.305,0,0,0-34.172,0l.89,5.835L5.5,12.914a29.305,29.305,0,0,0,0,34.172l8.137,2.707-.719,4.71a29.305,29.305,0,0,0,34.172,0l1.241-8.685L54.5,47.086a29.305,29.305,0,0,0,0-34.172ZM45.255,42.82l-8.4,1.454a15.885,15.885,0,0,1-13.675,0h-.035L17.5,45.491l-1.736-8.636V36.82a15.482,15.482,0,0,1,0-13.641l1.088-8.8,6.33,1.385a15.486,15.486,0,0,1,13.64,0h.035L43.2,14.594l1.074,8.586a15.887,15.887,0,0,1,0,13.676Z" transform="translate(0 0)" fill="url(#a)"/></g><g transform="translate(3.42 3.421)"><path d="M44.312,66.645a16.047,16.047,0,0,1-3.055-4.319l-11.832,11.8a1.7,1.7,0,0,0,0,2.458l4.95,4.951a1.7,1.7,0,0,0,2.458,0l11.8-11.8a16.779,16.779,0,0,1-4.319-3.09Zm35.638,5.9L69.733,62.326a17.119,17.119,0,0,1-3.09,4.319,16.577,16.577,0,0,1-4.319,3.09l11.8,11.8a1.7,1.7,0,0,0,2.458,0l4.95-4.951a1.7,1.7,0,0,0,0-2.458ZM66.642,44.314A15.913,15.913,0,0,1,69.7,48.668h.035l11.8-11.833a1.7,1.7,0,0,0,0-2.458l-4.95-4.951a1.7,1.7,0,0,0-2.458,0l-11.8,11.832A15.716,15.716,0,0,1,66.642,44.314ZM34.375,29.427l-4.95,4.951a1.7,1.7,0,0,0,0,2.458L41.257,48.668a15.349,15.349,0,0,1,3.055-4.354,15.9,15.9,0,0,1,4.354-3.055L36.833,29.427A1.7,1.7,0,0,0,34.375,29.427Z" transform="translate(-28.897 -28.9)" fill="url(#b)"/></g></svg>