<svg xmlns="http://www.w3.org/2000/svg" width="52" height="52" viewBox="0 0 52 52"><g transform="translate(4.322 6.481)"><path d="M32.275,38.888H10.931A10.933,10.933,0,0,1,0,27.978V10.91A10.933,10.933,0,0,1,10.931,0H32.275A11,11,0,0,1,40.01,3.2a10.827,10.827,0,0,1,3.2,7.709V27.978A10.934,10.934,0,0,1,32.275,38.888ZM8.716,11.333a1.584,1.584,0,0,0-1.155.485,1.651,1.651,0,0,0-.154,2.16l.284.28,9.829,7.671A6.76,6.76,0,0,0,21.734,23.4a6.869,6.869,0,0,0,4.231-1.468l9.747-7.8.173-.173a1.672,1.672,0,0,0-.025-2.16,1.8,1.8,0,0,0-1.141-.562l-.091,0a1.641,1.641,0,0,0-1.122.434l-9.741,7.778a3.381,3.381,0,0,1-2.153.779,3.44,3.44,0,0,1-2.168-.779L9.722,11.666A1.68,1.68,0,0,0,8.716,11.333Z" fill="#ae8454"/></g></svg>