<svg xmlns="http://www.w3.org/2000/svg" width="52" height="52" viewBox="0 0 52 52"><g transform="translate(4.32 4.322)"><path d="M34.927,26.744a4.924,4.924,0,0,0-3.616.95c-1.041.606-3.02,2.212-4.155,1.8A25.778,25.778,0,0,1,13.519,16.187c-.417-1.159,1.181-3.151,1.783-4.2a5.046,5.046,0,0,0,.943-3.64c-.272-1.314-3.79-5.79-5.033-7.014A4.132,4.132,0,0,0,8.688,0c-3.243-.139-6.866,4.188-7.5,5.224C-.4,7.435-.4,10.372,1.214,13.934,5.092,23.5,19.762,37.94,29.366,41.964a11.6,11.6,0,0,0,4.848,1.244A6.305,6.305,0,0,0,38,42.023c.823-.474,5.328-4.276,5.209-7.607a4.194,4.194,0,0,0-1.313-2.52c-1.215-1.255-5.662-4.878-6.966-5.152" transform="translate(0)" fill="#ae8454"/></g></svg>