<svg xmlns="http://www.w3.org/2000/svg" width="80.632" height="80" viewBox="0 0 80.632 80"><g transform="translate(0.316)"><g transform="translate(0.684 6.328)"><path d="M78.632,20.606a6.853,6.853,0,0,1-6.838,6.869H6.838A6.853,6.853,0,0,1,0,20.606V1.717A1.713,1.713,0,0,1,1.709,0H76.923a1.713,1.713,0,0,1,1.709,1.717Z" transform="translate(0 39.871)" fill="none" stroke="#fab91c" stroke-linecap="round" stroke-linejoin="round" stroke-miterlimit="10" stroke-width="2"/><path d="M64.957,10.3V6.869A6.853,6.853,0,0,0,58.12,0H6.838A6.853,6.853,0,0,0,0,6.869V10.3" transform="translate(6.838 29.568)" fill="none" stroke="#fab91c" stroke-linecap="round" stroke-linejoin="round" stroke-miterlimit="10" stroke-width="2"/><rect width="51.282" height="13.737" transform="translate(13.675 46.74)" fill="none" stroke="#fab91c" stroke-linecap="round" stroke-linejoin="round" stroke-miterlimit="10" stroke-width="2"/><path d="M0,29.568S0,10.679,23.932,10.679c11.624,0,15.839-4.963,18.944-9.884A1.706,1.706,0,0,1,45.856.97c5.388,11.234,4.916,20.651-1.412,28.6" transform="translate(15.385 0)" fill="none" stroke="#fab91c" stroke-linecap="round" stroke-linejoin="round" stroke-miterlimit="10" stroke-width="2"/></g></g></svg>