<svg xmlns="http://www.w3.org/2000/svg" width="52" height="52" viewBox="0 0 52 52"><g transform="translate(4.321 4.321)"><path d="M30.831,43H12.191C4.9,43,0,37.893,0,30.291V12.727C0,5.114,4.9,0,12.191,0h18.64C38.11,0,43,5.114,43,12.727V30.291C43,37.893,38.11,43,30.831,43ZM20.747,10.577a1.633,1.633,0,0,0-1.612,1.612V23.048a1.576,1.576,0,0,0,.8,1.376l8.429,5.031a1.5,1.5,0,0,0,.838.236,1.6,1.6,0,0,0,1.376-.8,1.548,1.548,0,0,0,.194-1.187,1.639,1.639,0,0,0-.753-1.026l-7.653-4.559V12.189A1.615,1.615,0,0,0,20.747,10.577Z" transform="translate(-0.32 -0.321)" fill="#ae8454"/></g></svg>