<svg xmlns="http://www.w3.org/2000/svg" xmlns:xlink="http://www.w3.org/1999/xlink" width="1465" height="208.44" viewBox="0 0 1465 208.44"><defs><linearGradient id="a" y1="0.5" x2="0.862" y2="0.621" gradientUnits="objectBoundingBox"><stop offset="0" stop-color="#d1d1d1"/><stop offset="1" stop-color="#6a2c4f" stop-opacity="0"/></linearGradient></defs><g transform="translate(2594 -4543)"><path d="M1331,208.44v0H36v0H-86V0H45.535C91.068,0,182.133,0,273.2,26.994c63.126,18.914,126.252,50.451,189.377,69.4,27.941-9.437,55.882-16.882,83.823-19.169,45.533-3.872,91.064,5.77,136.6,15.9,45.532-10.131,91.065-19.776,136.6-15.9,27.942,2.288,55.881,9.732,83.823,19.169C966.547,77.445,1029.675,45.908,1092.8,27c91.067-27,182.134-27,227.667-27H1379V208.44Z" transform="translate(-2508 4543)" fill="#a87c4f"/><rect width="125.93" height="13.751" rx="6.875" transform="matrix(0.819, -0.574, 0.574, 0.819, -2119.492, 4719.978)" opacity="0.27" fill="url(#a)"/><rect width="125.93" height="13.751" rx="6.875" transform="matrix(0.819, -0.574, 0.574, 0.819, -1840, 4719.448)" opacity="0.27" fill="url(#a)"/><rect width="125.93" height="13.751" rx="6.875" transform="matrix(0.819, -0.574, 0.574, 0.819, -2418.5, 4678.23)" opacity="0.27" fill="url(#a)"/><rect width="125.93" height="13.751" rx="6.875" transform="matrix(0.819, -0.574, 0.574, 0.819, -1336, 4677.701)" opacity="0.27" fill="url(#a)"/></g></svg>