<svg xmlns="http://www.w3.org/2000/svg" xmlns:xlink="http://www.w3.org/1999/xlink" width="250.952" height="250.952" viewBox="0 0 250.952 250.952"><defs><clipPath id="a"><circle cx="93.291" cy="93.291" r="93.291" transform="translate(-323 8090)" fill="#fff"/></clipPath><clipPath id="b"><rect width="417.129" height="248.776" fill="none"/></clipPath></defs><g transform="translate(-1205.273 -2658.063)"><g transform="matrix(0.891, -0.454, 0.454, 0.891, -2179.715, -4612.113)" opacity="0.65" clip-path="url(#a)"><g transform="translate(-443.099 8058.903)" clip-path="url(#b)"><g transform="translate(435 -8060.5)"><line y2="232" transform="translate(-434.5 8060.5)" fill="none" stroke="#ae8454" stroke-width="2"/></g><g transform="translate(444 -8060.5)"><line y2="232" transform="translate(-434.5 8060.5)" fill="none" stroke="#ae8454" stroke-width="2"/></g><g transform="translate(453 -8060.5)"><line y2="232" transform="translate(-434.5 8060.5)" fill="none" stroke="#ae8454" stroke-width="2"/></g><g transform="translate(462 -8060.5)"><line y2="232" transform="translate(-434.5 8060.5)" fill="none" stroke="#ae8454" stroke-width="2"/></g><g transform="translate(471 -8060.5)"><line y2="232" transform="translate(-434.5 8060.5)" fill="none" stroke="#ae8454" stroke-width="2"/></g><g transform="translate(480 -8060.5)"><line y2="232" transform="translate(-434.5 8060.5)" fill="none" stroke="#ae8454" stroke-width="2"/></g><g transform="translate(489 -8060.5)"><line y2="232" transform="translate(-434.5 8060.5)" fill="none" stroke="#ae8454" stroke-width="2"/></g><g transform="translate(498 -8060.5)"><line y2="232" transform="translate(-434.5 8060.5)" fill="none" stroke="#ae8454" stroke-width="2"/></g><g transform="translate(507 -8060.5)"><line y2="232" transform="translate(-434.5 8060.5)" fill="none" stroke="#ae8454" stroke-width="2"/></g><g transform="translate(516 -8060.5)"><line y2="232" transform="translate(-434.5 8060.5)" fill="none" stroke="#ae8454" stroke-width="2"/></g><g transform="translate(525 -8060.5)"><line y2="232" transform="translate(-434.5 8060.5)" fill="none" stroke="#ae8454" stroke-width="2"/></g><g transform="translate(534 -8060.5)"><line y2="232" transform="translate(-434.5 8060.5)" fill="none" stroke="#ae8454" stroke-width="2"/></g><g transform="translate(543 -8060.5)"><line y2="232" transform="translate(-434.5 8060.5)" fill="none" stroke="#ae8454" stroke-width="2"/></g><g transform="translate(552 -8060.5)"><line y2="232" transform="translate(-434.5 8060.5)" fill="none" stroke="#ae8454" stroke-width="2"/></g><g transform="translate(561 -8060.5)"><line y2="232" transform="translate(-434.5 8060.5)" fill="none" stroke="#ae8454" stroke-width="2"/></g><g transform="translate(570 -8060.5)"><line y2="232" transform="translate(-434.5 8060.5)" fill="none" stroke="#ae8454" stroke-width="2"/></g><g transform="translate(579 -8060.5)"><line y2="232" transform="translate(-434.5 8060.5)" fill="none" stroke="#ae8454" stroke-width="2"/></g><g transform="translate(588 -8060.5)"><line y2="232" transform="translate(-434.5 8060.5)" fill="none" stroke="#ae8454" stroke-width="2"/></g><g transform="translate(597 -8060.5)"><line y2="232" transform="translate(-434.5 8060.5)" fill="none" stroke="#ae8454" stroke-width="2"/></g><g transform="translate(606 -8060.5)"><line y2="232" transform="translate(-434.5 8060.5)" fill="none" stroke="#ae8454" stroke-width="2"/></g><g transform="translate(615 -8060.5)"><line y2="232" transform="translate(-434.5 8060.5)" fill="none" stroke="#ae8454" stroke-width="2"/></g><g transform="translate(624 -8060.5)"><line y2="232" transform="translate(-434.5 8060.5)" fill="none" stroke="#ae8454" stroke-width="2"/></g><g transform="translate(633 -8060.5)"><line y2="232" transform="translate(-434.5 8060.5)" fill="none" stroke="#ae8454" stroke-width="2"/></g><g transform="translate(642 -8060.5)"><line y2="232" transform="translate(-434.5 8060.5)" fill="none" stroke="#ae8454" stroke-width="2"/></g><g transform="translate(651 -8060.5)"><line y2="232" transform="translate(-434.5 8060.5)" fill="none" stroke="#ae8454" stroke-width="2"/></g><g transform="translate(660 -8060.5)"><line y2="232" transform="translate(-434.5 8060.5)" fill="none" stroke="#ae8454" stroke-width="2"/></g><g transform="translate(669 -8060.5)"><line y2="232" transform="translate(-434.5 8060.5)" fill="none" stroke="#ae8454" stroke-width="2"/></g><g transform="translate(678 -8060.5)"><line y2="232" transform="translate(-434.5 8060.5)" fill="none" stroke="#ae8454" stroke-width="2"/></g><g transform="translate(687 -8060.5)"><line y2="232" transform="translate(-434.5 8060.5)" fill="none" stroke="#ae8454" stroke-width="2"/></g><g transform="translate(696 -8060.5)"><line y2="232" transform="translate(-434.5 8060.5)" fill="none" stroke="#ae8454" stroke-width="2"/></g><g transform="translate(705 -8060.5)"><line y2="232" transform="translate(-434.5 8060.5)" fill="none" stroke="#ae8454" stroke-width="2"/></g><g transform="translate(714 -8060.5)"><line y2="232" transform="translate(-434.5 8060.5)" fill="none" stroke="#ae8454" stroke-width="2"/></g><g transform="translate(723 -8060.5)"><line y2="232" transform="translate(-434.5 8060.5)" fill="none" stroke="#ae8454" stroke-width="2"/></g><g transform="translate(732 -8060.5)"><line y2="232" transform="translate(-434.5 8060.5)" fill="none" stroke="#ae8454" stroke-width="2"/></g><g transform="translate(741 -8060.5)"><line y2="232" transform="translate(-434.5 8060.5)" fill="none" stroke="#ae8454" stroke-width="2"/></g><g transform="translate(750 -8060.5)"><line y2="232" transform="translate(-434.5 8060.5)" fill="none" stroke="#ae8454" stroke-width="2"/></g><g transform="translate(759 -8060.5)"><line y2="232" transform="translate(-434.5 8060.5)" fill="none" stroke="#ae8454" stroke-width="2"/></g><g transform="translate(768 -8060.5)"><line y2="232" transform="translate(-434.5 8060.5)" fill="none" stroke="#ae8454" stroke-width="2"/></g><g transform="translate(777 -8060.5)"><line y2="232" transform="translate(-434.5 8060.5)" fill="none" stroke="#ae8454" stroke-width="2"/></g><g transform="translate(786 -8060.5)"><line y2="232" transform="translate(-434.5 8060.5)" fill="none" stroke="#ae8454" stroke-width="2"/></g><g transform="translate(795 -8060.5)"><line y2="232" transform="translate(-434.5 8060.5)" fill="none" stroke="#ae8454" stroke-width="2"/></g><g transform="translate(804 -8060.5)"><line y2="232" transform="translate(-434.5 8060.5)" fill="none" stroke="#ae8454" stroke-width="2"/></g><g transform="translate(813 -8060.5)"><line y2="232" transform="translate(-434.5 8060.5)" fill="none" stroke="#ae8454" stroke-width="2"/></g><g transform="translate(822 -8060.5)"><line y2="232" transform="translate(-434.5 8060.5)" fill="none" stroke="#ae8454" stroke-width="2"/></g><g transform="translate(831 -8060.5)"><line y2="232" transform="translate(-434.5 8060.5)" fill="none" stroke="#ae8454" stroke-width="2"/></g><g transform="translate(840 -8060.5)"><line y2="232" transform="translate(-434.5 8060.5)" fill="none" stroke="#ae8454" stroke-width="2"/></g><g transform="translate(849 -8060.5)"><line y2="232" transform="translate(-434.5 8060.5)" fill="none" stroke="#ae8454" stroke-width="2"/></g></g></g></g></svg>