<svg xmlns="http://www.w3.org/2000/svg" width="1373.661" height="274.344" viewBox="0 0 1373.661 274.344"><g transform="translate(3.541 -3726.223)"><g transform="translate(0 1130)"><path d="M1367,1278.448s-122.467-113.8-294.363-120.1-193.22,94.915-393.22,94.915-236.319-101.21-406.779-94.915-275.06,120.1-275.06,120.1" transform="translate(1 1540)" fill="none" stroke="#a87c4f" stroke-linecap="round" stroke-width="3"/><path d="M1367,1278.448s-122.467-113.8-294.363-120.1-193.22,94.915-393.22,94.915-236.319-101.21-406.779-94.915-275.06,120.1-275.06,120.1" transform="translate(1 1590)" fill="none" stroke="rgba(168,124,79,0.45)" stroke-linecap="round" stroke-width="3"/></g><g transform="translate(633 3726.223)"><path d="M32.08,37.664A26.736,26.736,0,0,0,24.741,36.6a23.2,23.2,0,0,0-9.2,1.872c2.313-8.407,7.87-22.914,18.939-24.548a2.624,2.624,0,0,0,2.145-1.878l2.419-8.591a2.593,2.593,0,0,0-.334-2.135A2.632,2.632,0,0,0,36.868.167,18.505,18.505,0,0,0,34.393,0C21.106,0,7.948,13.769,2.4,33.483c-3.259,11.566-4.215,28.955,3.813,39.9C10.7,79.507,17.256,82.778,25.69,83.1l.1,0a23.365,23.365,0,0,0,22.442-16.92A22.853,22.853,0,0,0,46.1,48.6,23.349,23.349,0,0,0,32.08,37.664Z" transform="translate(0 0)" fill="#f8fbfc"/><path d="M46.1,48.6A23.347,23.347,0,0,0,32.079,37.663,26.735,26.735,0,0,0,24.741,36.6a23.21,23.21,0,0,0-9.2,1.872c2.313-8.407,7.87-22.914,18.94-24.547a2.625,2.625,0,0,0,2.145-1.878l2.419-8.591a2.593,2.593,0,0,0-.334-2.135A2.628,2.628,0,0,0,36.868.167,18.482,18.482,0,0,0,34.393,0c-13.287,0-26.445,13.768-32,33.483C-.863,45.049-1.819,62.437,6.21,73.384c4.492,6.123,11.047,9.395,19.48,9.72l.1,0a23.366,23.366,0,0,0,22.442-16.92A22.866,22.866,0,0,0,46.1,48.6Z" transform="translate(50.893 0)" fill="#f8fbfc"/></g></g></svg>