<svg xmlns="http://www.w3.org/2000/svg" width="153.009" height="51.257" viewBox="0 0 153.009 51.257"><g transform="translate(-443.501 -2716.876)"><g transform="translate(443.501 2716.876)"><path d="M353.256,84.925H215.407a7.588,7.588,0,0,1-7.58-7.58v-36.1a7.589,7.589,0,0,1,7.58-7.58H353.256a7.589,7.589,0,0,1,7.579,7.58v36.1A7.588,7.588,0,0,1,353.256,84.925ZM215.407,35.459a5.8,5.8,0,0,0-5.79,5.79v36.1a5.8,5.8,0,0,0,5.79,5.79H353.256a5.8,5.8,0,0,0,5.789-5.79v-36.1a5.8,5.8,0,0,0-5.789-5.79Z" transform="translate(-207.827 -33.668)" fill="#fff"/></g><g transform="translate(490.32 2727.607)"><path d="M264.15,49.9h-1.016a6.712,6.712,0,0,0-.288-1.187h-1.468a6.238,6.238,0,0,0-.3,1.187h-.956q0-.124.741-2.032a15.871,15.871,0,0,0,.742-2.1h1.2a17.6,17.6,0,0,0,.671,2.073A18.23,18.23,0,0,1,264.15,49.9ZM262.683,48.1a17.937,17.937,0,0,1-.543-1.772h-.051q0,.124-.562,1.772Z" transform="translate(-260.123 -45.665)" fill="#fff"/><path d="M268.8,49.9h-.785a7.785,7.785,0,0,0-.873-1.375,7.529,7.529,0,0,1-1.041-1.794h-.051a11.213,11.213,0,0,1,.08,1.258c0,.523.013,1.16.044,1.911h-.781q.047-.984.047-2.162,0-1.159-.047-1.972h.943a5.99,5.99,0,0,0,.784,1.343,7.964,7.964,0,0,1,.96,1.693h.047a12.154,12.154,0,0,1-.076-1.27q0-.861-.044-1.765h.794q-.046.787-.045,1.972T268.8,49.9Z" transform="translate(-260.675 -45.665)" fill="#fff"/><path d="M273.929,47.684a2.343,2.343,0,0,1-.578,1.575,2.021,2.021,0,0,1-1.62.673q-.47,0-1.3-.038.042-.957.041-2.162,0-1.156-.041-1.972h.557c.09,0,.227,0,.406-.01s.3-.01.352-.01a2.138,2.138,0,0,1,1.663.572A1.98,1.98,0,0,1,273.929,47.684Zm-.868.136a1.532,1.532,0,0,0-.355-1.027,1.348,1.348,0,0,0-1.086-.418,3.2,3.2,0,0,0-.375.029q.031.635.031,1.328,0,.759.032,1.5a2.082,2.082,0,0,0,.413.041,1.2,1.2,0,0,0,1.012-.423A1.636,1.636,0,0,0,273.062,47.82Z" transform="translate(-261.203 -45.663)" fill="#fff"/><path d="M278.687,49.893h-.94a6.227,6.227,0,0,0-.565-1.388.742.742,0,0,0-.636-.263c-.122,0-.24,0-.352,0q0,.815.029,1.647h-.883q.04-.957.041-2.162,0-1.156-.041-1.972h.549c.064,0,.2,0,.4-.01s.389-.01.56-.01q1.458,0,1.458,1a1.118,1.118,0,0,1-.832,1.1v.048a.993.993,0,0,1,.562.5A11.161,11.161,0,0,1,278.687,49.893ZM277.5,46.972q0-.633-.813-.632a2.881,2.881,0,0,0-.527.044q.035.493.035,1.284c.116,0,.215.006.3.006Q277.5,47.674,277.5,46.972Z" transform="translate(-261.717 -45.663)" fill="#fff"/><path d="M283.691,47.741a2.284,2.284,0,0,1-.6,1.617,1.936,1.936,0,0,1-1.476.641,1.867,1.867,0,0,1-1.4-.589,2.073,2.073,0,0,1-.566-1.5,2.284,2.284,0,0,1,.6-1.617,1.94,1.94,0,0,1,1.477-.642,1.87,1.87,0,0,1,1.4.587A2.075,2.075,0,0,1,283.691,47.741Zm-.876.092a1.637,1.637,0,0,0-.34-1.077,1.048,1.048,0,0,0-.839-.413.97.97,0,0,0-.788.416,1.66,1.66,0,0,0-.323,1.051,1.638,1.638,0,0,0,.341,1.075,1.049,1.049,0,0,0,.837.415.969.969,0,0,0,.788-.418A1.661,1.661,0,0,0,282.814,47.833Z" transform="translate(-262.168 -45.654)" fill="#fff"/><path d="M286.065,49.9h-.9q.04-.984.041-2.162,0-1.159-.041-1.972h.9q-.042.8-.042,1.972Q286.023,48.93,286.065,49.9Z" transform="translate(-262.746 -45.665)" fill="#fff"/><path d="M290.9,47.684a2.342,2.342,0,0,1-.577,1.575,2.023,2.023,0,0,1-1.62.673q-.469,0-1.3-.038.04-.957.041-2.162,0-1.156-.041-1.972h.556c.091,0,.226,0,.406-.01s.3-.01.353-.01a2.136,2.136,0,0,1,1.662.572A1.976,1.976,0,0,1,290.9,47.684Zm-.867.136a1.529,1.529,0,0,0-.356-1.027,1.347,1.347,0,0,0-1.086-.418,3.217,3.217,0,0,0-.375.029q.032.635.033,1.328,0,.759.031,1.5a2.075,2.075,0,0,0,.413.041,1.2,1.2,0,0,0,1.012-.423A1.637,1.637,0,0,0,290.036,47.82Z" transform="translate(-262.981 -45.663)" fill="#fff"/><path d="M297.662,49.9h-1.017a6.666,6.666,0,0,0-.289-1.187h-1.467a6.16,6.16,0,0,0-.3,1.187h-.955q0-.124.741-2.032a15.941,15.941,0,0,0,.741-2.1h1.2a17.6,17.6,0,0,0,.671,2.073A18.14,18.14,0,0,1,297.662,49.9ZM296.195,48.1a17.808,17.808,0,0,1-.543-1.772H295.6a18.575,18.575,0,0,1-.562,1.772Z" transform="translate(-263.633 -45.665)" fill="#fff"/><path d="M301.917,46.841a1.24,1.24,0,0,1-.563,1.122,2.513,2.513,0,0,1-1.383.362c-.1,0-.17,0-.213-.006q0,.6.035,1.575H298.9q.043-.917.041-2.162c0-.763-.013-1.42-.041-1.972h.553c.078,0,.228,0,.45-.01s.415-.01.578-.01a1.822,1.822,0,0,1,1.02.273A.925.925,0,0,1,301.917,46.841Zm-.819.175q0-.68-.9-.68a2.609,2.609,0,0,0-.477.047c.024.4.035.854.035,1.36.054,0,.115.006.184.006Q301.1,47.75,301.1,47.017Z" transform="translate(-264.184 -45.663)" fill="#fff"/><path d="M306.172,46.841a1.239,1.239,0,0,1-.564,1.122,2.508,2.508,0,0,1-1.382.362c-.1,0-.171,0-.213-.006q0,.6.035,1.575h-.893q.04-.917.041-2.162,0-1.144-.041-1.972h.552c.078,0,.229,0,.451-.01s.415-.01.578-.01a1.817,1.817,0,0,1,1.019.273A.925.925,0,0,1,306.172,46.841Zm-.819.175q0-.68-.9-.68a2.6,2.6,0,0,0-.476.047c.024.4.035.854.035,1.36.053,0,.115.006.184.006Q305.354,47.75,305.353,47.017Z" transform="translate(-264.63 -45.663)" fill="#fff"/><path d="M313.008,47.741a2.276,2.276,0,0,1-.6,1.617,1.934,1.934,0,0,1-1.476.641,1.866,1.866,0,0,1-1.4-.589,2.072,2.072,0,0,1-.565-1.5,2.276,2.276,0,0,1,.6-1.617,1.934,1.934,0,0,1,1.476-.642,1.87,1.87,0,0,1,1.4.587A2.075,2.075,0,0,1,313.008,47.741Zm-.876.092a1.642,1.642,0,0,0-.34-1.077,1.047,1.047,0,0,0-.839-.413.967.967,0,0,0-.787.416,1.656,1.656,0,0,0-.325,1.051,1.638,1.638,0,0,0,.342,1.075,1.048,1.048,0,0,0,.837.415.97.97,0,0,0,.788-.418A1.661,1.661,0,0,0,312.133,47.833Z" transform="translate(-265.239 -45.654)" fill="#fff"/><path d="M317.891,49.9h-.784a7.765,7.765,0,0,0-.874-1.375,7.579,7.579,0,0,1-1.042-1.794h-.05a11.207,11.207,0,0,1,.08,1.258q0,.784.044,1.911h-.782q.048-.984.048-2.162,0-1.159-.048-1.972h.944a5.991,5.991,0,0,0,.784,1.343,7.864,7.864,0,0,1,.959,1.693h.048a11.932,11.932,0,0,1-.076-1.27q0-.861-.045-1.765h.794q-.044.787-.045,1.972T317.891,49.9Z" transform="translate(-265.816 -45.665)" fill="#fff"/></g><g transform="translate(490.07 2736.815)"><path d="M274.7,64.21a6.623,6.623,0,0,1-1.826,4.9,7.118,7.118,0,0,1-5.4,2.176,7.676,7.676,0,1,1,0-15.351,7.572,7.572,0,0,1,3.017.615,6.051,6.051,0,0,1,2.3,1.642L271.5,59.49a4.959,4.959,0,0,0-4.022-1.745,5.87,5.87,0,1,0,4.1,10.1,4.609,4.609,0,0,0,1.231-2.976h-5.336V63.1H274.6A6.332,6.332,0,0,1,274.7,64.21Z" transform="translate(-259.844 -55.94)" fill="#fff"/><path d="M278.768,62.649a5.277,5.277,0,0,1,7.43,0,5.758,5.758,0,0,1,0,7.655,5.277,5.277,0,0,1-7.43,0,5.755,5.755,0,0,1,0-7.655Zm1.406,6.465a3.175,3.175,0,0,0,4.618,0,4.055,4.055,0,0,0,0-5.275,3.177,3.177,0,0,0-4.618,0,4.055,4.055,0,0,0,0,5.275Z" transform="translate(-261.673 -56.483)" fill="#fff"/><path d="M291.034,62.649a5.277,5.277,0,0,1,7.43,0,5.757,5.757,0,0,1,0,7.655,5.277,5.277,0,0,1-7.43,0,5.755,5.755,0,0,1,0-7.655Zm1.406,6.465a3.176,3.176,0,0,0,4.619,0,4.058,4.058,0,0,0,0-5.275,3.178,3.178,0,0,0-4.619,0,4.055,4.055,0,0,0,0,5.275Z" transform="translate(-262.958 -56.483)" fill="#fff"/><path d="M306.787,76.266a4.558,4.558,0,0,1-2.915-.893,5.238,5.238,0,0,1-1.62-2.042l1.724-.718a2.821,2.821,0,0,0,1.056,1.374,2.922,2.922,0,0,0,1.755.554,3.23,3.23,0,0,0,2.452-.934,3.513,3.513,0,0,0,.893-2.535v-.964h-.081a3.847,3.847,0,0,1-1.4,1.231,4.175,4.175,0,0,1-2.031.493,4.421,4.421,0,0,1-3.366-1.54,5.853,5.853,0,0,1,0-7.635,4.423,4.423,0,0,1,3.366-1.539,4.184,4.184,0,0,1,2.031.492,3.849,3.849,0,0,1,1.4,1.232h.081v-1.4h1.807v9.544a5.013,5.013,0,0,1-1.5,3.931A5.276,5.276,0,0,1,306.787,76.266Zm.143-6.157a3.011,3.011,0,0,0,2.269-.986,4.223,4.223,0,0,0,0-5.295,3.082,3.082,0,0,0-4.526.01,4.155,4.155,0,0,0,0,5.275A3,3,0,0,0,306.931,70.109Z" transform="translate(-264.243 -56.483)" fill="#fff"/><path d="M317,71h-1.888V56.306H317Z" transform="translate(-265.633 -55.978)" fill="#fff"/><path d="M323.591,71.834a4.848,4.848,0,0,1-3.7-1.519,5.38,5.38,0,0,1-1.427-3.837,5.538,5.538,0,0,1,1.386-3.777,4.5,4.5,0,0,1,3.54-1.58,4.638,4.638,0,0,1,3.581,1.457,5.525,5.525,0,0,1,1.345,3.9l-.021.348h-7.943a3.413,3.413,0,0,0,1.016,2.4,3.08,3.08,0,0,0,2.185.883,2.71,2.71,0,0,0,2.751-1.724l1.682.7a4.51,4.51,0,0,1-1.621,1.96A4.715,4.715,0,0,1,323.591,71.834Zm2.71-6.568a2.681,2.681,0,0,0-.79-1.642,2.824,2.824,0,0,0-2.166-.78,2.708,2.708,0,0,0-1.816.656,3.355,3.355,0,0,0-1.057,1.765Z" transform="translate(-265.983 -56.483)" fill="#fff"/><path d="M337.542,71h-1.889V56.306h5.008a4.647,4.647,0,0,1,3.232,1.241,4.271,4.271,0,0,1,0,6.261,4.643,4.643,0,0,1-3.232,1.241h-3.119Zm0-7.757h3.16a2.441,2.441,0,0,0,1.909-.8,2.527,2.527,0,0,0,0-3.529,2.438,2.438,0,0,0-1.909-.8h-3.16Z" transform="translate(-267.784 -55.978)" fill="#fff"/><path d="M349.645,71h-1.887V56.306h1.887Z" transform="translate(-269.052 -55.978)" fill="#fff"/><path d="M354.86,71.834a3.97,3.97,0,0,1-2.678-.924,3.058,3.058,0,0,1-1.079-2.442,3.018,3.018,0,0,1,1.273-2.576,5.166,5.166,0,0,1,3.14-.934,5.4,5.4,0,0,1,2.73.616v-.288a2.242,2.242,0,0,0-.759-1.774,2.726,2.726,0,0,0-1.868-.667,2.9,2.9,0,0,0-1.488.389,2.008,2.008,0,0,0-.913,1.067l-1.724-.739a3.908,3.908,0,0,1,1.375-1.672,4.4,4.4,0,0,1,2.71-.77,4.652,4.652,0,0,1,3.2,1.129,4.032,4.032,0,0,1,1.272,3.182v6.074h-1.807v-1.4h-.081A3.7,3.7,0,0,1,354.86,71.834Zm.308-1.724a3.076,3.076,0,0,0,2.124-.873,2.7,2.7,0,0,0,.953-2.062,3.722,3.722,0,0,0-2.4-.657,3.121,3.121,0,0,0-2.073.6,1.786,1.786,0,0,0-.7,1.4,1.344,1.344,0,0,0,.637,1.17A2.536,2.536,0,0,0,355.168,70.109Z" transform="translate(-269.402 -56.483)" fill="#fff"/><path d="M365.246,75.976H363.3l2.339-5.069-4.146-9.421h2.052l3,7.226h.041l2.914-7.226h2.052Z" transform="translate(-270.49 -56.521)" fill="#fff"/></g><g transform="translate(454.843 2728.087)"><path d="M220.5,62.39q0-7.039,0-14.081a2.113,2.113,0,0,1,.519-1.537c.159-.168.273-.214.467-.016q4.738,4.834,9.489,9.654,3.075,3.124,6.157,6.24c.2.2.217.307.005.517q-7.55,7.508-15.079,15.038a.518.518,0,0,1-.816.048,1.916,1.916,0,0,1-.743-1.627q0-4.17-.005-8.34,0-2.948,0-5.9Z" transform="translate(-220.496 -46.236)" fill="#fff"/><path d="M222.52,46.191a1.719,1.719,0,0,1,.916.254q9.643,5.4,19.288,10.8c.3.166.289.258.061.483q-2.157,2.122-4.29,4.267c-.153.155-.247.244-.454.033q-7.671-7.824-15.356-15.634C222.643,46.349,222.608,46.3,222.52,46.191Z" transform="translate(-220.708 -46.191)" fill="#fff"/><path d="M224.128,80.086q7-7.074,13.989-14.157c.289-.293.423-.254.683.015,1.182,1.232,2.382,2.447,3.587,3.655.212.212.229.3-.058.457q-8.984,4.918-17.961,9.852A2.562,2.562,0,0,0,224.128,80.086Z" transform="translate(-220.876 -48.237)" fill="#fff"/><path d="M252.543,63.857a1.467,1.467,0,0,1-.646,1.179,8.3,8.3,0,0,1-.893.544c-1.811,1-3.628,1.993-5.434,3a.406.406,0,0,1-.591-.079q-1.928-1.994-3.889-3.958c-.191-.191-.2-.295,0-.486q2.282-2.247,4.539-4.518a.364.364,0,0,1,.526-.073c1.789,1.014,3.586,2.014,5.38,3.019A1.643,1.643,0,0,1,252.543,63.857Z" transform="translate(-222.638 -47.573)" fill="#fff"/></g></g></svg>