<svg xmlns="http://www.w3.org/2000/svg" width="52" height="51" viewBox="0 0 52 51"><g transform="translate(7.561 4.321)"><path d="M18.373,43.208a2.934,2.934,0,0,1-1.585-.535A46.476,46.476,0,0,1,4.818,31.567,22.435,22.435,0,0,1,0,17.97,17.647,17.647,0,0,1,5.408,5.258,18.429,18.429,0,0,1,18.349,0,18.2,18.2,0,0,1,36.727,17.97a22.447,22.447,0,0,1-4.818,13.6A47.357,47.357,0,0,1,19.938,42.673,2.851,2.851,0,0,1,18.373,43.208Zm-.024-30.727A6.055,6.055,0,0,0,12.3,18.53a5.858,5.858,0,0,0,1.774,4.222A6.1,6.1,0,0,0,24.425,18.53a6.1,6.1,0,0,0-6.076-6.049Z" fill="#ae8454"/></g></svg>