<svg xmlns="http://www.w3.org/2000/svg" width="150" height="150" viewBox="0 0 150 150"><circle cx="4" cy="4" r="4" fill="rgba(174,132,84,0.25)"/><circle cx="4" cy="4" r="4" transform="translate(0 63)" fill="rgba(174,132,84,0.25)"/><circle cx="4" cy="4" r="4" transform="translate(0 31)" fill="rgba(174,132,84,0.25)"/><circle cx="4" cy="4" r="4" transform="translate(0 95)" fill="rgba(174,132,84,0.25)"/><circle cx="4" cy="4" r="4" transform="translate(0 127)" fill="rgba(174,132,84,0.25)"/><circle cx="4" cy="4" r="4" transform="translate(0 15)" fill="rgba(174,132,84,0.25)"/><circle cx="4" cy="4" r="4" transform="translate(0 79)" fill="rgba(174,132,84,0.25)"/><circle cx="4" cy="4" r="4" transform="translate(0 47)" fill="rgba(174,132,84,0.25)"/><circle cx="4" cy="4" r="4" transform="translate(0 111)" fill="rgba(174,132,84,0.25)"/><circle cx="4" cy="4" r="4" transform="translate(0 142)" fill="rgba(174,132,84,0.25)"/><circle cx="4" cy="4" r="4" transform="translate(15)" fill="rgba(174,132,84,0.25)"/><circle cx="4" cy="4" r="4" transform="translate(15 63)" fill="rgba(174,132,84,0.25)"/><circle cx="4" cy="4" r="4" transform="translate(15 31)" fill="rgba(174,132,84,0.25)"/><circle cx="4" cy="4" r="4" transform="translate(15 95)" fill="rgba(174,132,84,0.25)"/><circle cx="4" cy="4" r="4" transform="translate(15 127)" fill="rgba(174,132,84,0.25)"/><circle cx="4" cy="4" r="4" transform="translate(15 15)" fill="rgba(174,132,84,0.25)"/><circle cx="4" cy="4" r="4" transform="translate(15 79)" fill="rgba(174,132,84,0.25)"/><circle cx="4" cy="4" r="4" transform="translate(15 47)" fill="rgba(174,132,84,0.25)"/><circle cx="4" cy="4" r="4" transform="translate(15 111)" fill="rgba(174,132,84,0.25)"/><circle cx="4" cy="4" r="4" transform="translate(15 142)" fill="rgba(174,132,84,0.25)"/><circle cx="4" cy="4" r="4" transform="translate(31)" fill="rgba(174,132,84,0.25)"/><circle cx="4" cy="4" r="4" transform="translate(31 63)" fill="rgba(174,132,84,0.25)"/><circle cx="4" cy="4" r="4" transform="translate(31 31)" fill="rgba(174,132,84,0.25)"/><circle cx="4" cy="4" r="4" transform="translate(31 95)" fill="rgba(174,132,84,0.25)"/><circle cx="4" cy="4" r="4" transform="translate(31 127)" fill="rgba(174,132,84,0.25)"/><circle cx="4" cy="4" r="4" transform="translate(31 15)" fill="rgba(174,132,84,0.25)"/><circle cx="4" cy="4" r="4" transform="translate(31 79)" fill="rgba(174,132,84,0.25)"/><circle cx="4" cy="4" r="4" transform="translate(31 47)" fill="rgba(174,132,84,0.25)"/><circle cx="4" cy="4" r="4" transform="translate(31 111)" fill="rgba(174,132,84,0.25)"/><circle cx="4" cy="4" r="4" transform="translate(31 142)" fill="rgba(174,132,84,0.25)"/><circle cx="4" cy="4" r="4" transform="translate(47)" fill="rgba(174,132,84,0.25)"/><circle cx="4" cy="4" r="4" transform="translate(47 63)" fill="rgba(174,132,84,0.25)"/><circle cx="4" cy="4" r="4" transform="translate(47 31)" fill="rgba(174,132,84,0.25)"/><circle cx="4" cy="4" r="4" transform="translate(47 95)" fill="rgba(174,132,84,0.25)"/><circle cx="4" cy="4" r="4" transform="translate(47 127)" fill="rgba(174,132,84,0.25)"/><circle cx="4" cy="4" r="4" transform="translate(47 15)" fill="rgba(174,132,84,0.25)"/><circle cx="4" cy="4" r="4" transform="translate(47 79)" fill="rgba(174,132,84,0.25)"/><circle cx="4" cy="4" r="4" transform="translate(47 47)" fill="rgba(174,132,84,0.25)"/><circle cx="4" cy="4" r="4" transform="translate(47 111)" fill="rgba(174,132,84,0.25)"/><circle cx="4" cy="4" r="4" transform="translate(47 142)" fill="rgba(174,132,84,0.25)"/><circle cx="4" cy="4" r="4" transform="translate(63)" fill="rgba(174,132,84,0.25)"/><circle cx="4" cy="4" r="4" transform="translate(63 63)" fill="rgba(174,132,84,0.25)"/><circle cx="4" cy="4" r="4" transform="translate(63 31)" fill="rgba(174,132,84,0.25)"/><circle cx="4" cy="4" r="4" transform="translate(63 95)" fill="rgba(174,132,84,0.25)"/><circle cx="4" cy="4" r="4" transform="translate(63 127)" fill="rgba(174,132,84,0.25)"/><circle cx="4" cy="4" r="4" transform="translate(63 15)" fill="rgba(174,132,84,0.25)"/><circle cx="4" cy="4" r="4" transform="translate(63 79)" fill="rgba(174,132,84,0.25)"/><circle cx="4" cy="4" r="4" transform="translate(63 47)" fill="rgba(174,132,84,0.25)"/><circle cx="4" cy="4" r="4" transform="translate(63 111)" fill="rgba(174,132,84,0.25)"/><circle cx="4" cy="4" r="4" transform="translate(63 142)" fill="rgba(174,132,84,0.25)"/><circle cx="4" cy="4" r="4" transform="translate(79)" fill="rgba(174,132,84,0.25)"/><circle cx="4" cy="4" r="4" transform="translate(79 63)" fill="rgba(174,132,84,0.25)"/><circle cx="4" cy="4" r="4" transform="translate(79 31)" fill="rgba(174,132,84,0.25)"/><circle cx="4" cy="4" r="4" transform="translate(79 15)" fill="rgba(174,132,84,0.25)"/><circle cx="4" cy="4" r="4" transform="translate(79 79)" fill="rgba(174,132,84,0.25)"/><circle cx="4" cy="4" r="4" transform="translate(79 47)" fill="rgba(174,132,84,0.25)"/><circle cx="4" cy="4" r="4" transform="translate(79 111)" fill="rgba(174,132,84,0.25)"/><circle cx="4" cy="4" r="4" transform="translate(79 142)" fill="rgba(174,132,84,0.25)"/><circle cx="4" cy="4" r="4" transform="translate(95)" fill="rgba(174,132,84,0.25)"/><circle cx="4" cy="4" r="4" transform="translate(95 63)" fill="rgba(174,132,84,0.25)"/><circle cx="4" cy="4" r="4" transform="translate(95 31)" fill="rgba(174,132,84,0.25)"/><circle cx="4" cy="4" r="4" transform="translate(95 95)" fill="rgba(174,132,84,0.25)"/><circle cx="4" cy="4" r="4" transform="translate(95 127)" fill="rgba(174,132,84,0.25)"/><circle cx="4" cy="4" r="4" transform="translate(79 95)" fill="rgba(174,132,84,0.25)"/><circle cx="4" cy="4" r="4" transform="translate(79 127)" fill="rgba(174,132,84,0.25)"/><circle cx="4" cy="4" r="4" transform="translate(95 15)" fill="rgba(174,132,84,0.25)"/><circle cx="4" cy="4" r="4" transform="translate(95 79)" fill="rgba(174,132,84,0.25)"/><circle cx="4" cy="4" r="4" transform="translate(95 47)" fill="rgba(174,132,84,0.25)"/><circle cx="4" cy="4" r="4" transform="translate(95 111)" fill="rgba(174,132,84,0.25)"/><circle cx="4" cy="4" r="4" transform="translate(95 142)" fill="rgba(174,132,84,0.25)"/><circle cx="4" cy="4" r="4" transform="translate(111)" fill="rgba(174,132,84,0.25)"/><circle cx="4" cy="4" r="4" transform="translate(111 63)" fill="rgba(174,132,84,0.25)"/><circle cx="4" cy="4" r="4" transform="translate(111 31)" fill="rgba(174,132,84,0.25)"/><circle cx="4" cy="4" r="4" transform="translate(111 95)" fill="rgba(174,132,84,0.25)"/><circle cx="4" cy="4" r="4" transform="translate(111 127)" fill="rgba(174,132,84,0.25)"/><circle cx="4" cy="4" r="4" transform="translate(111 15)" fill="rgba(174,132,84,0.25)"/><circle cx="4" cy="4" r="4" transform="translate(111 79)" fill="rgba(174,132,84,0.25)"/><circle cx="4" cy="4" r="4" transform="translate(111 47)" fill="rgba(174,132,84,0.25)"/><circle cx="4" cy="4" r="4" transform="translate(111 111)" fill="rgba(174,132,84,0.25)"/><circle cx="4" cy="4" r="4" transform="translate(111 142)" fill="rgba(174,132,84,0.25)"/><circle cx="4" cy="4" r="4" transform="translate(127)" fill="rgba(174,132,84,0.25)"/><circle cx="4" cy="4" r="4" transform="translate(127 63)" fill="rgba(174,132,84,0.25)"/><circle cx="4" cy="4" r="4" transform="translate(127 31)" fill="rgba(174,132,84,0.25)"/><circle cx="4" cy="4" r="4" transform="translate(127 95)" fill="rgba(174,132,84,0.25)"/><circle cx="4" cy="4" r="4" transform="translate(127 127)" fill="rgba(174,132,84,0.25)"/><circle cx="4" cy="4" r="4" transform="translate(127 15)" fill="rgba(174,132,84,0.25)"/><circle cx="4" cy="4" r="4" transform="translate(127 79)" fill="rgba(174,132,84,0.25)"/><circle cx="4" cy="4" r="4" transform="translate(127 47)" fill="rgba(174,132,84,0.25)"/><circle cx="4" cy="4" r="4" transform="translate(127 111)" fill="rgba(174,132,84,0.25)"/><circle cx="4" cy="4" r="4" transform="translate(127 142)" fill="rgba(174,132,84,0.25)"/><circle cx="4" cy="4" r="4" transform="translate(142)" fill="rgba(174,132,84,0.25)"/><circle cx="4" cy="4" r="4" transform="translate(142 63)" fill="rgba(174,132,84,0.25)"/><circle cx="4" cy="4" r="4" transform="translate(142 31)" fill="rgba(174,132,84,0.25)"/><circle cx="4" cy="4" r="4" transform="translate(142 95)" fill="rgba(174,132,84,0.25)"/><circle cx="4" cy="4" r="4" transform="translate(142 127)" fill="rgba(174,132,84,0.25)"/><circle cx="4" cy="4" r="4" transform="translate(142 15)" fill="rgba(174,132,84,0.25)"/><circle cx="4" cy="4" r="4" transform="translate(142 79)" fill="rgba(174,132,84,0.25)"/><circle cx="4" cy="4" r="4" transform="translate(142 47)" fill="rgba(174,132,84,0.25)"/><circle cx="4" cy="4" r="4" transform="translate(142 111)" fill="rgba(174,132,84,0.25)"/><circle cx="4" cy="4" r="4" transform="translate(142 142)" fill="rgba(174,132,84,0.25)"/></svg>