<svg xmlns="http://www.w3.org/2000/svg" width="80.632" height="80.632" viewBox="0 0 80.632 80.632"><g transform="translate(0.316 0.316)"><g transform="translate(0.684 0.684)"><path d="M0,1.07a13.675,13.675,0,1,1,5.326,26.28" transform="translate(44.246 13.675)" fill="none" stroke="#fab91c" stroke-linecap="round" stroke-linejoin="round" stroke-miterlimit="10" stroke-width="2"/><path d="M0,0V5.128" transform="translate(51.282)" fill="none" stroke="#fab91c" stroke-linecap="round" stroke-linejoin="round" stroke-miterlimit="10" stroke-width="2"/><path d="M4.838,0,0,4.834" transform="translate(65.285 8.509)" fill="none" stroke="#fab91c" stroke-linecap="round" stroke-linejoin="round" stroke-miterlimit="10" stroke-width="2"/><path d="M6.838,0H0" transform="translate(71.795 27.35)" fill="none" stroke="#fab91c" stroke-linecap="round" stroke-linejoin="round" stroke-miterlimit="10" stroke-width="2"/><path d="M4.838,4.834,0,0" transform="translate(65.285 43.029)" fill="none" stroke="#fab91c" stroke-linecap="round" stroke-linejoin="round" stroke-miterlimit="10" stroke-width="2"/><path d="M0,5.128V0" transform="translate(51.282 49.573)" fill="none" stroke="#fab91c" stroke-linecap="round" stroke-linejoin="round" stroke-miterlimit="10" stroke-width="2"/><path d="M13.675,8.547,10.687,1.074A1.709,1.709,0,0,0,9.1,0H4.578a1.709,1.709,0,0,0-1.59,1.074L0,8.547" transform="translate(13.675 15.385)" fill="none" stroke="#fab91c" stroke-linecap="round" stroke-linejoin="round" stroke-miterlimit="10" stroke-width="2"/><path d="M0,0V11.966" transform="translate(20.513 3.419)" fill="none" stroke="#fab91c" stroke-linecap="round" stroke-linejoin="round" stroke-miterlimit="10" stroke-width="2"/><path d="M30.985,0H8.663A3.419,3.419,0,0,0,6.027,1.244L0,8.547" transform="translate(1.494 3.419)" fill="none" stroke="#fab91c" stroke-linecap="round" stroke-linejoin="round" stroke-miterlimit="10" stroke-width="2"/><rect width="27.35" height="17.094" rx="0.5" transform="translate(6.838 44.444)" fill="none" stroke="#fab91c" stroke-linecap="round" stroke-linejoin="round" stroke-miterlimit="10" stroke-width="2"/><path d="M6.838,0h27.35a6.838,6.838,0,0,1,6.838,6.838V47.863A6.838,6.838,0,0,1,34.188,54.7H6.838A6.838,6.838,0,0,1,0,47.863V6.838A6.838,6.838,0,0,1,6.838,0Z" transform="translate(0 23.932)" fill="none" stroke="#fab91c" stroke-linecap="round" stroke-linejoin="round" stroke-miterlimit="10" stroke-width="2"/></g></g></svg>