<svg xmlns="http://www.w3.org/2000/svg" width="80" height="80.039" viewBox="0 0 80 80.039"><g transform="translate(0 0.019)"><g transform="translate(3.725 0.981)"><path d="M32.651,29.39a15.8,15.8,0,0,1-4.671,11.576,16.017,16.017,0,0,1-11.653,4.64,16.017,16.017,0,0,1-11.653-4.64A15.8,15.8,0,0,1,0,29.39C0,21.862,10.843,6.262,14.877.745a1.821,1.821,0,0,1,2.938,0C21.812,6.262,32.651,21.862,32.651,29.39Z" transform="translate(39.898 0)" fill="none" stroke="#fab91c" stroke-linecap="round" stroke-linejoin="round" stroke-miterlimit="10" stroke-width="2"/><path d="M39.9,0H50.784a14.462,14.462,0,0,1,14.51,14.414H0" transform="translate(0 60.021)" fill="none" stroke="#fab91c" stroke-linecap="round" stroke-linejoin="round" stroke-miterlimit="10" stroke-width="2"/><path d="M0,0H25.392A14.462,14.462,0,0,1,39.9,14.414H23.578" transform="translate(0 45.606)" fill="none" stroke="#fab91c" stroke-linecap="round" stroke-linejoin="round" stroke-miterlimit="10" stroke-width="2"/><path d="M0,0V36.036" transform="translate(0 42.003)" fill="none" stroke="#fab91c" stroke-linecap="round" stroke-linejoin="round" stroke-miterlimit="10" stroke-width="2"/></g></g></svg>