<svg xmlns="http://www.w3.org/2000/svg" width="1389.67" height="260.473" viewBox="0 0 1389.67 260.473"><g transform="translate(1521.591 -3751.186)"><path d="M0,32H46.319c46.319,0,138.957,0,231.6,33.735,92.638,34.1,185.276,101.024,277.914,106.179,92.638,4.793,185.276-53.09,277.914-43.412,92.638,9.316,185.276,87.1,277.914,96.411,92.638,9.677,185.276-48.206,231.595-77.147,0,0,46.1-28.751,46.319,8.848s0,135.859,0,135.859H0Z" transform="translate(-1521.591 3719.186)" fill="#fff"/><path d="M1389.67,32h-46.319c-46.319,0-138.957,0-231.595,33.735-92.638,34.1-185.276,101.024-277.914,106.179-92.638,4.793-185.276-53.09-277.914-43.412-92.638,9.316-185.276,87.1-277.914,96.411-92.638,9.677-185.276-48.206-231.6-77.147,0,0-46.1-28.751-46.319,8.848s0,135.859,0,135.859H1389.67Z" transform="translate(-1521.591 3719.186)" fill="#fff"/></g></svg>