<svg xmlns="http://www.w3.org/2000/svg" xmlns:xlink="http://www.w3.org/1999/xlink" width="1920" height="465.021" viewBox="0 0 1920 465.021"><defs><linearGradient id="a" x1="0.97" y1="-0.23" x2="0.024" y2="0.739" gradientUnits="objectBoundingBox"><stop offset="0" stop-color="#968afa"/><stop offset="1" stop-color="#463d83" stop-opacity="0"/></linearGradient><linearGradient id="b" x1="0.036" y1="0.378" x2="0.971" y2="0.5" gradientUnits="objectBoundingBox"><stop offset="0" stop-color="#6252df"/><stop offset="1" stop-color="#463d83"/></linearGradient></defs><g transform="translate(4438.77 -2386.391)"><path d="M-406.8,2846.391H-2308.944l-17.855,452.092s300.284-226.405,595.766-120.882,406.729,126.34,711.22,120.882c321.453-6.825,613.014-181.007,613.014-181.007Z" transform="translate(-2111.97 -460)" opacity="0.44" fill="url(#a)"/><path d="M-388.77,2846.391h-1920v241.975s293.709-90.968,591.965,14.555,401.918,171.02,709.267,165.562c324.47-6.825,618.768-151.007,618.768-151.007Z" transform="translate(-2130 -460)" fill="url(#b)"/><g transform="translate(-2992.18 2715.052)" fill="none" stroke="#ffb20a" stroke-width="20"><ellipse cx="67.178" cy="68.18" rx="67.178" ry="68.18" stroke="none"/><ellipse cx="67.178" cy="68.18" rx="57.178" ry="58.18" fill="none"/></g></g></svg>