<svg id="Capa_1" enable-background="new 0 0 512 512" height="512" viewBox="0 0 512 512" width="512" xmlns="http://www.w3.org/2000/svg" xmlns:xlink="http://www.w3.org/1999/xlink"><linearGradient id="SVGID_1_" gradientUnits="userSpaceOnUse" x1="256" x2="256" y1="512" y2="0"><stop offset="0" stop-color="#ffe59a"/><stop offset="1" stop-color="#ffffd5"/></linearGradient><linearGradient id="SVGID_2_" gradientUnits="userSpaceOnUse" x1="256" x2="256" y1="105" y2="407"><stop offset="0" stop-color="#fd5900"/><stop offset="1" stop-color="#ffde00"/></linearGradient><g><g><circle cx="256" cy="256" fill="url(#SVGID_1_)" r="256"/></g><g><g><path d="m202.751 336h132.951c19.795 0 37.329-13.252 42.607-32.163l28.22-98.517c.771-2.678.234-5.564-1.439-7.783-1.681-2.228-4.307-3.536-7.089-3.536h-223.582l-10.461-48.648c-5.036-23.383-26.045-40.353-49.957-40.353-4.906 0-8.875 3.969-8.875 8.875s3.969 8.875 8.875 8.875c15.609 0 29.32 11.076 32.605 26.33.38 1.768 31.906 148.377 32.657 151.872 1.705 7.928 5.572 14.96 10.832 20.645-8.277 4.521-13.97 13.201-13.97 23.278 0 12.271 8.387 22.527 19.705 25.597-1.236 3.068-1.955 6.398-1.955 9.903 0 14.682 11.943 26.625 26.625 26.625s26.625-11.943 26.625-26.625c0-3.149-.646-6.13-1.654-8.936l74.341-.105c-1.032 2.835-1.687 5.852-1.687 9.041 0 14.682 11.943 26.625 26.625 26.625s26.625-11.943 26.625-26.625c0-3.214-.661-6.256-1.708-9.111l10.592-.015c4.906-.009 8.875-3.987 8.866-8.884-.009-4.906-3.978-8.866-8.875-8.866l-177.499.251c-4.897 0-8.875-3.978-8.875-8.875s3.978-8.875 8.875-8.875zm115.496-46.082 8.875-53.25c.797-4.836 5.339-8.173 10.21-7.298 4.836.806 8.104 5.373 7.298 10.21l-8.875 53.25c-.816 4.921-5.515 8.121-10.21 7.298-4.837-.806-8.104-5.374-7.298-10.21zm-44.497-51.793c0-4.906 3.969-8.875 8.875-8.875s8.875 3.969 8.875 8.875v53.25c0 4.906-3.969 8.875-8.875 8.875-4.905 0-8.875-3.969-8.875-8.875zm-45.83-8.754c4.81-.867 9.404 2.461 10.21 7.298l8.875 53.25c.806 4.836-2.461 9.404-7.298 10.21-4.703.824-9.395-2.38-10.21-7.298l-8.875-53.25c-.806-4.837 2.461-9.404 7.298-10.21zm-48.656 71.581c-.001 0-.001-.001 0 0 .018.086.018.084 0 0z" fill="url(#SVGID_2_)"/></g></g></g></svg>