<svg id="Capa_1" enable-background="new 0 0 512 512" height="512" viewBox="0 0 512 512" width="512" xmlns="http://www.w3.org/2000/svg" xmlns:xlink="http://www.w3.org/1999/xlink"><linearGradient id="SVGID_1_" gradientUnits="userSpaceOnUse" x1="256" x2="256" y1="512" y2="0"><stop offset="0" stop-color="#addcff"/><stop offset=".5028" stop-color="#eaf6ff"/><stop offset="1" stop-color="#eaf6ff"/></linearGradient><linearGradient id="SVGID_2_" gradientUnits="userSpaceOnUse" x1="256" x2="256" y1="402.5" y2="109.5"><stop offset="0" stop-color="#00c0ff"/><stop offset="1" stop-color="#5558ff"/></linearGradient><g><g><circle cx="256" cy="256" fill="url(#SVGID_1_)" r="256"/></g><g><g><path d="m238.235 228.335 24.548-12.268-24.548-12.267zm120.059-61.095c-8.006-33.318-38.444-57.74-73.219-57.74-23.637 0-45.513 10.872-59.687 29.373-32.212-5.407-62.118 15.149-70.339 44.831-28.113 3.13-50.05 27.032-50.05 55.954 0 31.046 25.277 56.31 56.339 56.31h80.288l-29.102 58.173c-1.379 2.748-1.231 6.017.391 8.635s4.476 4.213 7.555 4.213h8.882v26.633c0 4.907 3.973 8.878 8.882 8.878h35.529c4.91 0 8.882-3.971 8.882-8.878v-26.633h8.882c3.08 0 5.933-1.595 7.555-4.213s1.77-5.887.391-8.635l-29.102-58.173h71.146c36.111 0 65.481-29.356 65.481-65.448.002-30.093-20.139-55.781-48.704-63.28zm-71.674 56.769-53.294 26.633c-2.804 1.392-6.07 1.208-8.639-.39-2.62-1.621-4.216-4.474-4.216-7.551v-53.266c0-3.078 1.596-5.93 4.216-7.551 2.628-1.63 5.881-1.751 8.639-.39l53.294 26.633c3.01 1.509 4.909 4.578 4.909 7.941s-1.899 6.432-4.909 7.941z" fill="url(#SVGID_2_)"/></g></g></g></svg>